<?xml version="1.0" standalone="no"?>
<!DOCTYPE svg PUBLIC "-//W3C//DTD SVG 20010904//EN"
 "http://www.w3.org/TR/2001/REC-SVG-20010904/DTD/svg10.dtd">
<svg version="1.0" xmlns="http://www.w3.org/2000/svg"
 width="52.000000pt" height="49.000000pt" viewBox="0 0 52.000000 49.000000"
 preserveAspectRatio="xMidYMid meet">
<g transform="translate(0.000000,49.000000) scale(0.100000,-0.100000)"
fill="#000000" stroke="none">
<path d="M149 460 c-126 -66 -170 -210 -102 -331 41 -73 103 -112 187 -117
l61 -4 50 51 c61 63 79 67 29 6 -20 -25 -34 -48 -30 -52 3 -3 24 -1 45 6 53
15 97 70 112 138 13 59 10 69 -18 55 -10 -6 -49 -24 -86 -42 -67 -31 -80 -46
-101 -112 -11 -36 -116 -15 -173 35 -95 84 -95 220 0 304 115 101 306 38 333
-110 5 -28 11 -37 23 -35 11 3 15 12 13 33 -7 67 -74 150 -144 179 -53 22
-154 20 -199 -4z m341 -290 c0 -48 -69 -141 -104 -140 -6 0 2 8 17 18 31 19
79 106 70 128 -3 8 0 14 6 14 6 0 11 -9 11 -20z m-44 -44 c-16 -42 -51 -84
-61 -74 -3 3 4 17 15 31 30 38 6 44 -36 8 -19 -17 -36 -31 -37 -31 -2 0 -3 8
-4 19 -2 25 44 67 92 85 22 7 42 12 44 10 2 -2 -4 -23 -13 -48z"/>
<path d="M373 128 c-18 -13 -35 -29 -38 -36 -2 -7 11 -1 30 14 28 21 38 24 49
15 10 -8 16 -9 21 -1 3 5 0 10 -9 10 -8 0 -16 5 -18 10 -2 6 -18 0 -35 -12z"/>
<path d="M287 271 l-63 -60 -32 32 c-20 20 -35 28 -41 22 -10 -11 5 -32 52
-74 l28 -25 74 74 c67 66 81 90 55 90 -5 0 -38 -27 -73 -59z"/>
</g>
</svg>
